G04 (created by PCBNEW (2013-07-07 BZR 4022)-stable) date 1/30/2015 12:57:55 AM*
%MOIN*%
G04 Gerber Fmt 3.4, Leading zero omitted, Abs format*
%FSLAX34Y34*%
G01*
G70*
G90*
G04 APERTURE LIST*
%ADD10C,0.00590551*%
%ADD11C,0.011811*%
%ADD12C,0.0039*%
%ADD13C,0.0043*%
%ADD14R,0.055X0.035*%
%ADD15R,0.06X0.06*%
%ADD16C,0.06*%
G04 APERTURE END LIST*
G54D10*
X86796Y-58816D02*
X86650Y-58816D01*
X86729Y-58906D01*
X86695Y-58906D01*
X86673Y-58917D01*
X86661Y-58928D01*
X86650Y-58951D01*
X86650Y-59007D01*
X86661Y-59029D01*
X86673Y-59041D01*
X86695Y-59052D01*
X86763Y-59052D01*
X86785Y-59041D01*
X86796Y-59029D01*
X86571Y-58894D02*
X86515Y-59052D01*
X86459Y-58894D01*
X86392Y-58816D02*
X86245Y-58816D01*
X86324Y-58906D01*
X86290Y-58906D01*
X86268Y-58917D01*
X86257Y-58928D01*
X86245Y-58951D01*
X86245Y-59007D01*
X86257Y-59029D01*
X86268Y-59041D01*
X86290Y-59052D01*
X86358Y-59052D01*
X86380Y-59041D01*
X86392Y-59029D01*
X85711Y-58827D02*
X85733Y-58816D01*
X85767Y-58816D01*
X85801Y-58827D01*
X85823Y-58849D01*
X85835Y-58872D01*
X85846Y-58917D01*
X85846Y-58951D01*
X85835Y-58996D01*
X85823Y-59018D01*
X85801Y-59041D01*
X85767Y-59052D01*
X85745Y-59052D01*
X85711Y-59041D01*
X85700Y-59029D01*
X85700Y-58951D01*
X85745Y-58951D01*
X85598Y-59052D02*
X85598Y-58816D01*
X85464Y-59052D01*
X85464Y-58816D01*
X85351Y-59052D02*
X85351Y-58816D01*
X85295Y-58816D01*
X85261Y-58827D01*
X85239Y-58849D01*
X85227Y-58872D01*
X85216Y-58917D01*
X85216Y-58951D01*
X85227Y-58996D01*
X85239Y-59018D01*
X85261Y-59041D01*
X85295Y-59052D01*
X85351Y-59052D01*
X84828Y-59041D02*
X84794Y-59052D01*
X84738Y-59052D01*
X84715Y-59041D01*
X84704Y-59029D01*
X84693Y-59007D01*
X84693Y-58984D01*
X84704Y-58962D01*
X84715Y-58951D01*
X84738Y-58939D01*
X84783Y-58928D01*
X84805Y-58917D01*
X84817Y-58906D01*
X84828Y-58883D01*
X84828Y-58861D01*
X84817Y-58838D01*
X84805Y-58827D01*
X84783Y-58816D01*
X84727Y-58816D01*
X84693Y-58827D01*
X84457Y-59029D02*
X84468Y-59041D01*
X84502Y-59052D01*
X84524Y-59052D01*
X84558Y-59041D01*
X84580Y-59018D01*
X84592Y-58996D01*
X84603Y-58951D01*
X84603Y-58917D01*
X84592Y-58872D01*
X84580Y-58849D01*
X84558Y-58827D01*
X84524Y-58816D01*
X84502Y-58816D01*
X84468Y-58827D01*
X84457Y-58838D01*
X84243Y-59052D02*
X84356Y-59052D01*
X84356Y-58816D01*
X83849Y-59041D02*
X83816Y-59052D01*
X83759Y-59052D01*
X83737Y-59041D01*
X83726Y-59029D01*
X83714Y-59007D01*
X83714Y-58984D01*
X83726Y-58962D01*
X83737Y-58951D01*
X83759Y-58939D01*
X83804Y-58928D01*
X83827Y-58917D01*
X83838Y-58906D01*
X83849Y-58883D01*
X83849Y-58861D01*
X83838Y-58838D01*
X83827Y-58827D01*
X83804Y-58816D01*
X83748Y-58816D01*
X83714Y-58827D01*
X83613Y-59052D02*
X83613Y-58816D01*
X83557Y-58816D01*
X83523Y-58827D01*
X83501Y-58849D01*
X83489Y-58872D01*
X83478Y-58917D01*
X83478Y-58951D01*
X83489Y-58996D01*
X83501Y-59018D01*
X83523Y-59041D01*
X83557Y-59052D01*
X83613Y-59052D01*
X83388Y-58984D02*
X83276Y-58984D01*
X83411Y-59052D02*
X83332Y-58816D01*
X83253Y-59052D01*
G54D11*
X87281Y-55817D02*
X87281Y-55305D01*
X87159Y-55305D01*
X87086Y-55329D01*
X87037Y-55378D01*
X87013Y-55427D01*
X86989Y-55524D01*
X86989Y-55598D01*
X87013Y-55695D01*
X87037Y-55744D01*
X87086Y-55793D01*
X87159Y-55817D01*
X87281Y-55817D01*
X86574Y-55793D02*
X86623Y-55817D01*
X86721Y-55817D01*
X86769Y-55793D01*
X86794Y-55744D01*
X86794Y-55549D01*
X86769Y-55500D01*
X86721Y-55476D01*
X86623Y-55476D01*
X86574Y-55500D01*
X86550Y-55549D01*
X86550Y-55598D01*
X86794Y-55646D01*
X86355Y-55793D02*
X86306Y-55817D01*
X86209Y-55817D01*
X86160Y-55793D01*
X86136Y-55744D01*
X86136Y-55719D01*
X86160Y-55671D01*
X86209Y-55646D01*
X86282Y-55646D01*
X86331Y-55622D01*
X86355Y-55573D01*
X86355Y-55549D01*
X86331Y-55500D01*
X86282Y-55476D01*
X86209Y-55476D01*
X86160Y-55500D01*
X85916Y-55817D02*
X85916Y-55476D01*
X85916Y-55305D02*
X85941Y-55329D01*
X85916Y-55354D01*
X85892Y-55329D01*
X85916Y-55305D01*
X85916Y-55354D01*
X85453Y-55476D02*
X85453Y-55890D01*
X85478Y-55939D01*
X85502Y-55963D01*
X85551Y-55988D01*
X85624Y-55988D01*
X85673Y-55963D01*
X85453Y-55793D02*
X85502Y-55817D01*
X85599Y-55817D01*
X85648Y-55793D01*
X85673Y-55768D01*
X85697Y-55719D01*
X85697Y-55573D01*
X85673Y-55524D01*
X85648Y-55500D01*
X85599Y-55476D01*
X85502Y-55476D01*
X85453Y-55500D01*
X85209Y-55476D02*
X85209Y-55817D01*
X85209Y-55524D02*
X85185Y-55500D01*
X85136Y-55476D01*
X85063Y-55476D01*
X85014Y-55500D01*
X84990Y-55549D01*
X84990Y-55817D01*
X84551Y-55793D02*
X84600Y-55817D01*
X84698Y-55817D01*
X84746Y-55793D01*
X84771Y-55744D01*
X84771Y-55549D01*
X84746Y-55500D01*
X84698Y-55476D01*
X84600Y-55476D01*
X84551Y-55500D01*
X84527Y-55549D01*
X84527Y-55598D01*
X84771Y-55646D01*
X84088Y-55817D02*
X84088Y-55305D01*
X84088Y-55793D02*
X84137Y-55817D01*
X84235Y-55817D01*
X84283Y-55793D01*
X84308Y-55768D01*
X84332Y-55719D01*
X84332Y-55573D01*
X84308Y-55524D01*
X84283Y-55500D01*
X84235Y-55476D01*
X84137Y-55476D01*
X84088Y-55500D01*
X83284Y-55549D02*
X83211Y-55573D01*
X83187Y-55598D01*
X83162Y-55646D01*
X83162Y-55719D01*
X83187Y-55768D01*
X83211Y-55793D01*
X83260Y-55817D01*
X83455Y-55817D01*
X83455Y-55305D01*
X83284Y-55305D01*
X83235Y-55329D01*
X83211Y-55354D01*
X83187Y-55403D01*
X83187Y-55451D01*
X83211Y-55500D01*
X83235Y-55524D01*
X83284Y-55549D01*
X83455Y-55549D01*
X82992Y-55476D02*
X82870Y-55817D01*
X82748Y-55476D02*
X82870Y-55817D01*
X82919Y-55939D01*
X82943Y-55963D01*
X82992Y-55988D01*
X87525Y-56140D02*
X87232Y-56140D01*
X87379Y-56652D02*
X87379Y-56140D01*
X87110Y-56310D02*
X86989Y-56652D01*
X86867Y-56310D02*
X86989Y-56652D01*
X87037Y-56773D01*
X87062Y-56798D01*
X87110Y-56822D01*
X86599Y-56652D02*
X86647Y-56627D01*
X86672Y-56578D01*
X86672Y-56140D01*
X86209Y-56627D02*
X86257Y-56652D01*
X86355Y-56652D01*
X86404Y-56627D01*
X86428Y-56578D01*
X86428Y-56383D01*
X86404Y-56335D01*
X86355Y-56310D01*
X86257Y-56310D01*
X86209Y-56335D01*
X86184Y-56383D01*
X86184Y-56432D01*
X86428Y-56481D01*
X85965Y-56652D02*
X85965Y-56310D01*
X85965Y-56408D02*
X85941Y-56359D01*
X85916Y-56335D01*
X85868Y-56310D01*
X85819Y-56310D01*
X85258Y-56652D02*
X85258Y-56140D01*
X85258Y-56383D02*
X84966Y-56383D01*
X84966Y-56652D02*
X84966Y-56140D01*
X84503Y-56652D02*
X84503Y-56383D01*
X84527Y-56335D01*
X84576Y-56310D01*
X84673Y-56310D01*
X84722Y-56335D01*
X84503Y-56627D02*
X84551Y-56652D01*
X84673Y-56652D01*
X84722Y-56627D01*
X84746Y-56578D01*
X84746Y-56530D01*
X84722Y-56481D01*
X84673Y-56457D01*
X84551Y-56457D01*
X84503Y-56432D01*
X84040Y-56627D02*
X84088Y-56652D01*
X84186Y-56652D01*
X84235Y-56627D01*
X84259Y-56603D01*
X84283Y-56554D01*
X84283Y-56408D01*
X84259Y-56359D01*
X84235Y-56335D01*
X84186Y-56310D01*
X84088Y-56310D01*
X84040Y-56335D01*
X83820Y-56652D02*
X83820Y-56140D01*
X83772Y-56457D02*
X83625Y-56652D01*
X83625Y-56310D02*
X83820Y-56505D01*
X83211Y-56627D02*
X83260Y-56652D01*
X83357Y-56652D01*
X83406Y-56627D01*
X83430Y-56578D01*
X83430Y-56383D01*
X83406Y-56335D01*
X83357Y-56310D01*
X83260Y-56310D01*
X83211Y-56335D01*
X83187Y-56383D01*
X83187Y-56432D01*
X83430Y-56481D01*
X83040Y-56310D02*
X82845Y-56310D01*
X82967Y-56140D02*
X82967Y-56578D01*
X82943Y-56627D01*
X82894Y-56652D01*
X82845Y-56652D01*
X82748Y-56310D02*
X82553Y-56310D01*
X82675Y-56140D02*
X82675Y-56578D01*
X82650Y-56627D01*
X82602Y-56652D01*
X82553Y-56652D01*
X85916Y-57023D02*
X85892Y-56999D01*
X85843Y-56974D01*
X85721Y-56974D01*
X85673Y-56999D01*
X85648Y-57023D01*
X85624Y-57072D01*
X85624Y-57121D01*
X85648Y-57194D01*
X85941Y-57486D01*
X85624Y-57486D01*
X85307Y-56974D02*
X85258Y-56974D01*
X85209Y-56999D01*
X85185Y-57023D01*
X85161Y-57072D01*
X85136Y-57169D01*
X85136Y-57291D01*
X85161Y-57389D01*
X85185Y-57437D01*
X85209Y-57462D01*
X85258Y-57486D01*
X85307Y-57486D01*
X85356Y-57462D01*
X85380Y-57437D01*
X85404Y-57389D01*
X85429Y-57291D01*
X85429Y-57169D01*
X85404Y-57072D01*
X85380Y-57023D01*
X85356Y-56999D01*
X85307Y-56974D01*
X84649Y-57486D02*
X84941Y-57486D01*
X84795Y-57486D02*
X84795Y-56974D01*
X84844Y-57047D01*
X84893Y-57096D01*
X84941Y-57121D01*
X84186Y-56974D02*
X84430Y-56974D01*
X84454Y-57218D01*
X84430Y-57194D01*
X84381Y-57169D01*
X84259Y-57169D01*
X84210Y-57194D01*
X84186Y-57218D01*
X84161Y-57267D01*
X84161Y-57389D01*
X84186Y-57437D01*
X84210Y-57462D01*
X84259Y-57486D01*
X84381Y-57486D01*
X84430Y-57462D01*
X84454Y-57437D01*
G54D12*
X85783Y-57420D02*
G75*
G03X85783Y-57420I-50J0D01*
G74*
G01*
X85733Y-57870D02*
X85733Y-57470D01*
X85733Y-57470D02*
X85133Y-57470D01*
X85133Y-57470D02*
X85133Y-57870D01*
X85133Y-58270D02*
X85133Y-58670D01*
X85133Y-58670D02*
X85733Y-58670D01*
X85733Y-58670D02*
X85733Y-58270D01*
X84995Y-57420D02*
G75*
G03X84995Y-57420I-50J0D01*
G74*
G01*
X84945Y-57870D02*
X84945Y-57470D01*
X84945Y-57470D02*
X84345Y-57470D01*
X84345Y-57470D02*
X84345Y-57870D01*
X84345Y-58270D02*
X84345Y-58670D01*
X84345Y-58670D02*
X84945Y-58670D01*
X84945Y-58670D02*
X84945Y-58270D01*
G54D13*
X85387Y-58038D02*
X85293Y-57972D01*
X85387Y-57925D02*
X85190Y-57925D01*
X85190Y-58000D01*
X85200Y-58019D01*
X85209Y-58028D01*
X85228Y-58038D01*
X85256Y-58038D01*
X85275Y-58028D01*
X85284Y-58019D01*
X85293Y-58000D01*
X85293Y-57925D01*
X85209Y-58113D02*
X85200Y-58122D01*
X85190Y-58141D01*
X85190Y-58188D01*
X85200Y-58206D01*
X85209Y-58216D01*
X85228Y-58225D01*
X85247Y-58225D01*
X85275Y-58216D01*
X85387Y-58103D01*
X85387Y-58225D01*
X85531Y-57916D02*
X85662Y-57916D01*
X85456Y-57869D02*
X85597Y-57822D01*
X85597Y-57944D01*
X85662Y-58019D02*
X85465Y-58019D01*
X85662Y-58131D02*
X85550Y-58047D01*
X85465Y-58131D02*
X85578Y-58019D01*
X85465Y-58197D02*
X85465Y-58328D01*
X85662Y-58244D01*
X84600Y-58038D02*
X84506Y-57972D01*
X84600Y-57925D02*
X84403Y-57925D01*
X84403Y-58000D01*
X84412Y-58019D01*
X84422Y-58028D01*
X84440Y-58038D01*
X84469Y-58038D01*
X84487Y-58028D01*
X84497Y-58019D01*
X84506Y-58000D01*
X84506Y-57925D01*
X84403Y-58103D02*
X84403Y-58225D01*
X84478Y-58159D01*
X84478Y-58188D01*
X84487Y-58206D01*
X84497Y-58216D01*
X84515Y-58225D01*
X84562Y-58225D01*
X84581Y-58216D01*
X84591Y-58206D01*
X84600Y-58188D01*
X84600Y-58131D01*
X84591Y-58113D01*
X84581Y-58103D01*
X84744Y-57916D02*
X84875Y-57916D01*
X84669Y-57869D02*
X84809Y-57822D01*
X84809Y-57944D01*
X84875Y-58019D02*
X84678Y-58019D01*
X84875Y-58131D02*
X84762Y-58047D01*
X84678Y-58131D02*
X84790Y-58019D01*
X84678Y-58197D02*
X84678Y-58328D01*
X84875Y-58244D01*
%LPC*%
G54D14*
X85433Y-57695D03*
X85433Y-58445D03*
X84645Y-57695D03*
X84645Y-58445D03*
G54D15*
X83539Y-59448D03*
G54D16*
X84539Y-59448D03*
X85539Y-59448D03*
X86539Y-59448D03*
M02*
