G04 (created by PCBNEW (2013-07-07 BZR 4022)-stable) date 1/30/2015 12:57:55 AM*
%MOIN*%
G04 Gerber Fmt 3.4, Leading zero omitted, Abs format*
%FSLAX34Y34*%
G01*
G70*
G90*
G04 APERTURE LIST*
%ADD10C,0.00590551*%
%ADD11C,0.0039*%
%ADD12C,0.01*%
%ADD13C,0.005*%
%ADD14C,0.0043*%
%ADD15C,0.008*%
%ADD16C,0.00492126*%
%ADD17C,0.0024*%
%ADD18R,0.055X0.035*%
%ADD19R,0.06X0.06*%
%ADD20C,0.06*%
%ADD21R,0.0255906X0.00885827*%
%ADD22R,0.059X0.0512*%
G04 APERTURE END LIST*
G54D10*
G54D11*
X83608Y-57420D02*
G75*
G03X83608Y-57420I-50J0D01*
G74*
G01*
X83558Y-57870D02*
X83558Y-57470D01*
X83558Y-57470D02*
X84158Y-57470D01*
X84158Y-57470D02*
X84158Y-57870D01*
X84158Y-58270D02*
X84158Y-58670D01*
X84158Y-58670D02*
X83558Y-58670D01*
X83558Y-58670D02*
X83558Y-58270D01*
X83420Y-58720D02*
G75*
G03X83420Y-58720I-50J0D01*
G74*
G01*
X83370Y-58270D02*
X83370Y-58670D01*
X83370Y-58670D02*
X82770Y-58670D01*
X82770Y-58670D02*
X82770Y-58270D01*
X82770Y-57870D02*
X82770Y-57470D01*
X82770Y-57470D02*
X83370Y-57470D01*
X83370Y-57470D02*
X83370Y-57870D01*
G54D12*
X87039Y-59948D02*
X83039Y-59948D01*
X87039Y-58948D02*
X83039Y-58948D01*
X83039Y-58948D02*
X83039Y-59948D01*
X87039Y-59948D02*
X87039Y-58948D01*
G54D13*
X85970Y-57820D02*
X86470Y-57820D01*
X85970Y-58320D02*
X86460Y-58320D01*
X85970Y-58470D02*
X85970Y-57670D01*
X85970Y-57670D02*
X86470Y-57670D01*
X86470Y-57670D02*
X86470Y-58470D01*
X86470Y-58470D02*
X85970Y-58470D01*
X87454Y-56352D02*
X86954Y-56352D01*
X87454Y-55852D02*
X86964Y-55852D01*
X87454Y-55702D02*
X87454Y-56502D01*
X87454Y-56502D02*
X86954Y-56502D01*
X86954Y-56502D02*
X86954Y-55702D01*
X86954Y-55702D02*
X87454Y-55702D01*
X83124Y-56352D02*
X82624Y-56352D01*
X83124Y-55852D02*
X82634Y-55852D01*
X83124Y-55702D02*
X83124Y-56502D01*
X83124Y-56502D02*
X82624Y-56502D01*
X82624Y-56502D02*
X82624Y-55702D01*
X82624Y-55702D02*
X83124Y-55702D01*
X86757Y-57820D02*
X87257Y-57820D01*
X86757Y-58320D02*
X87247Y-58320D01*
X86757Y-58470D02*
X86757Y-57670D01*
X86757Y-57670D02*
X87257Y-57670D01*
X87257Y-57670D02*
X87257Y-58470D01*
X87257Y-58470D02*
X86757Y-58470D01*
G54D14*
X84063Y-58103D02*
X83969Y-58169D01*
X84063Y-58216D02*
X83866Y-58216D01*
X83866Y-58141D01*
X83875Y-58122D01*
X83884Y-58113D01*
X83903Y-58103D01*
X83931Y-58103D01*
X83950Y-58113D01*
X83959Y-58122D01*
X83969Y-58141D01*
X83969Y-58216D01*
X84063Y-57916D02*
X84063Y-58028D01*
X84063Y-57972D02*
X83866Y-57972D01*
X83894Y-57991D01*
X83912Y-58009D01*
X83922Y-58028D01*
X83788Y-58009D02*
X83694Y-58075D01*
X83788Y-58122D02*
X83591Y-58122D01*
X83591Y-58047D01*
X83600Y-58028D01*
X83609Y-58019D01*
X83628Y-58009D01*
X83656Y-58009D01*
X83675Y-58019D01*
X83684Y-58028D01*
X83694Y-58047D01*
X83694Y-58122D01*
X83025Y-58216D02*
X82828Y-58216D01*
X82828Y-58169D01*
X82837Y-58141D01*
X82856Y-58122D01*
X82875Y-58113D01*
X82913Y-58103D01*
X82941Y-58103D01*
X82978Y-58113D01*
X82997Y-58122D01*
X83016Y-58141D01*
X83025Y-58169D01*
X83025Y-58216D01*
X83025Y-57916D02*
X83025Y-58028D01*
X83025Y-57972D02*
X82828Y-57972D01*
X82856Y-57991D01*
X82875Y-58009D01*
X82884Y-58028D01*
X83300Y-58197D02*
X83300Y-58291D01*
X83103Y-58291D01*
X83197Y-58131D02*
X83197Y-58066D01*
X83300Y-58038D02*
X83300Y-58131D01*
X83103Y-58131D01*
X83103Y-58038D01*
X83300Y-57953D02*
X83103Y-57953D01*
X83103Y-57906D01*
X83112Y-57878D01*
X83131Y-57859D01*
X83150Y-57850D01*
X83188Y-57841D01*
X83216Y-57841D01*
X83253Y-57850D01*
X83272Y-57859D01*
X83291Y-57878D01*
X83300Y-57906D01*
X83300Y-57953D01*
G54D15*
X84744Y-58610D02*
X84744Y-58210D01*
X84896Y-58210D01*
X84934Y-58229D01*
X84953Y-58248D01*
X84972Y-58286D01*
X84972Y-58344D01*
X84953Y-58382D01*
X84934Y-58401D01*
X84896Y-58420D01*
X84744Y-58420D01*
X85353Y-58610D02*
X85125Y-58610D01*
X85239Y-58610D02*
X85239Y-58210D01*
X85201Y-58267D01*
X85163Y-58305D01*
X85125Y-58325D01*
G54D16*
X84889Y-56811D02*
X84889Y-56971D01*
X84898Y-56990D01*
X84908Y-56999D01*
X84926Y-57008D01*
X84964Y-57008D01*
X84983Y-56999D01*
X84992Y-56990D01*
X85001Y-56971D01*
X85001Y-56811D01*
X85198Y-57008D02*
X85086Y-57008D01*
X85142Y-57008D02*
X85142Y-56811D01*
X85123Y-56840D01*
X85104Y-56858D01*
X85086Y-56868D01*
X84401Y-55709D02*
X84401Y-55512D01*
X84467Y-55653D01*
X84533Y-55512D01*
X84533Y-55709D01*
X84626Y-55709D02*
X84626Y-55512D01*
X84692Y-55653D01*
X84758Y-55512D01*
X84758Y-55709D01*
X84842Y-55653D02*
X84936Y-55653D01*
X84823Y-55709D02*
X84889Y-55512D01*
X84955Y-55709D01*
X85048Y-55597D02*
X85029Y-55587D01*
X85020Y-55578D01*
X85011Y-55559D01*
X85011Y-55550D01*
X85020Y-55531D01*
X85029Y-55522D01*
X85048Y-55512D01*
X85086Y-55512D01*
X85104Y-55522D01*
X85114Y-55531D01*
X85123Y-55550D01*
X85123Y-55559D01*
X85114Y-55578D01*
X85104Y-55587D01*
X85086Y-55597D01*
X85048Y-55597D01*
X85029Y-55606D01*
X85020Y-55615D01*
X85011Y-55634D01*
X85011Y-55672D01*
X85020Y-55690D01*
X85029Y-55700D01*
X85048Y-55709D01*
X85086Y-55709D01*
X85104Y-55700D01*
X85114Y-55690D01*
X85123Y-55672D01*
X85123Y-55634D01*
X85114Y-55615D01*
X85104Y-55606D01*
X85086Y-55597D01*
X85292Y-55512D02*
X85254Y-55512D01*
X85236Y-55522D01*
X85226Y-55531D01*
X85208Y-55559D01*
X85198Y-55597D01*
X85198Y-55672D01*
X85208Y-55690D01*
X85217Y-55700D01*
X85236Y-55709D01*
X85273Y-55709D01*
X85292Y-55700D01*
X85301Y-55690D01*
X85311Y-55672D01*
X85311Y-55625D01*
X85301Y-55606D01*
X85292Y-55597D01*
X85273Y-55587D01*
X85236Y-55587D01*
X85217Y-55597D01*
X85208Y-55606D01*
X85198Y-55625D01*
X85489Y-55512D02*
X85395Y-55512D01*
X85386Y-55606D01*
X85395Y-55597D01*
X85414Y-55587D01*
X85461Y-55587D01*
X85479Y-55597D01*
X85489Y-55606D01*
X85498Y-55625D01*
X85498Y-55672D01*
X85489Y-55690D01*
X85479Y-55700D01*
X85461Y-55709D01*
X85414Y-55709D01*
X85395Y-55700D01*
X85386Y-55690D01*
X85573Y-55531D02*
X85583Y-55522D01*
X85601Y-55512D01*
X85648Y-55512D01*
X85667Y-55522D01*
X85676Y-55531D01*
X85686Y-55550D01*
X85686Y-55568D01*
X85676Y-55597D01*
X85564Y-55709D01*
X85686Y-55709D01*
G54D17*
X85866Y-58090D02*
X85872Y-58096D01*
X85878Y-58113D01*
X85878Y-58124D01*
X85872Y-58141D01*
X85861Y-58152D01*
X85850Y-58157D01*
X85827Y-58163D01*
X85810Y-58163D01*
X85788Y-58157D01*
X85777Y-58152D01*
X85765Y-58141D01*
X85760Y-58124D01*
X85760Y-58113D01*
X85765Y-58096D01*
X85771Y-58090D01*
X85771Y-58045D02*
X85765Y-58039D01*
X85760Y-58028D01*
X85760Y-58000D01*
X85765Y-57989D01*
X85771Y-57983D01*
X85782Y-57978D01*
X85793Y-57978D01*
X85810Y-57983D01*
X85878Y-58051D01*
X85878Y-57978D01*
X87631Y-56122D02*
X87636Y-56127D01*
X87642Y-56144D01*
X87642Y-56155D01*
X87636Y-56172D01*
X87625Y-56183D01*
X87614Y-56189D01*
X87591Y-56195D01*
X87575Y-56195D01*
X87552Y-56189D01*
X87541Y-56183D01*
X87530Y-56172D01*
X87524Y-56155D01*
X87524Y-56144D01*
X87530Y-56127D01*
X87535Y-56122D01*
X87524Y-56082D02*
X87524Y-56009D01*
X87569Y-56048D01*
X87569Y-56032D01*
X87575Y-56020D01*
X87580Y-56015D01*
X87591Y-56009D01*
X87620Y-56009D01*
X87631Y-56015D01*
X87636Y-56020D01*
X87642Y-56032D01*
X87642Y-56065D01*
X87636Y-56077D01*
X87631Y-56082D01*
X83300Y-56122D02*
X83306Y-56127D01*
X83311Y-56144D01*
X83311Y-56155D01*
X83306Y-56172D01*
X83294Y-56183D01*
X83283Y-56189D01*
X83261Y-56195D01*
X83244Y-56195D01*
X83221Y-56189D01*
X83210Y-56183D01*
X83199Y-56172D01*
X83193Y-56155D01*
X83193Y-56144D01*
X83199Y-56127D01*
X83205Y-56122D01*
X83233Y-56020D02*
X83311Y-56020D01*
X83188Y-56048D02*
X83272Y-56077D01*
X83272Y-56004D01*
X86654Y-58090D02*
X86660Y-58096D01*
X86665Y-58113D01*
X86665Y-58124D01*
X86660Y-58141D01*
X86648Y-58152D01*
X86637Y-58157D01*
X86615Y-58163D01*
X86598Y-58163D01*
X86575Y-58157D01*
X86564Y-58152D01*
X86553Y-58141D01*
X86547Y-58124D01*
X86547Y-58113D01*
X86553Y-58096D01*
X86558Y-58090D01*
X86665Y-57978D02*
X86665Y-58045D01*
X86665Y-58011D02*
X86547Y-58011D01*
X86564Y-58023D01*
X86575Y-58034D01*
X86581Y-58045D01*
%LPC*%
G54D18*
X83858Y-57695D03*
X83858Y-58445D03*
X83070Y-58445D03*
X83070Y-57695D03*
G54D19*
X83539Y-59448D03*
G54D20*
X84539Y-59448D03*
X85539Y-59448D03*
X86539Y-59448D03*
G54D21*
X85393Y-56614D03*
X85393Y-56456D03*
X85393Y-56299D03*
X85393Y-56141D03*
X85393Y-55984D03*
X84685Y-55984D03*
X84685Y-56141D03*
X84685Y-56299D03*
X84685Y-56456D03*
X84685Y-56614D03*
G54D22*
X86220Y-57695D03*
X86220Y-58445D03*
X87204Y-56477D03*
X87204Y-55727D03*
X82874Y-56477D03*
X82874Y-55727D03*
X87007Y-57695D03*
X87007Y-58445D03*
M02*
