G04 (created by PCBNEW (2013-07-07 BZR 4022)-stable) date 1/30/2015 12:57:55 AM*
%MOIN*%
G04 Gerber Fmt 3.4, Leading zero omitted, Abs format*
%FSLAX34Y34*%
G01*
G70*
G90*
G04 APERTURE LIST*
%ADD10C,0.00590551*%
%ADD11R,0.055X0.035*%
%ADD12R,0.06X0.06*%
%ADD13C,0.06*%
%ADD14C,0.03*%
%ADD15C,0.022*%
%ADD16C,0.009*%
%ADD17C,0.007*%
G04 APERTURE END LIST*
G54D10*
G54D11*
X85433Y-57695D03*
X85433Y-58445D03*
X84645Y-57695D03*
X84645Y-58445D03*
G54D12*
X83539Y-59448D03*
G54D13*
X84539Y-59448D03*
X85539Y-59448D03*
X86539Y-59448D03*
G54D14*
X84645Y-57283D03*
G54D15*
X83464Y-56594D03*
X83070Y-57480D03*
G54D14*
X87204Y-55511D03*
G54D15*
X86614Y-56791D03*
X83464Y-56889D03*
G54D16*
X84645Y-57283D02*
X84645Y-57695D01*
X84645Y-57695D02*
X85433Y-57695D01*
G54D17*
X83464Y-56594D02*
X84547Y-55511D01*
X83464Y-56594D02*
X83070Y-56988D01*
X84547Y-55511D02*
X87204Y-55511D01*
X83070Y-57480D02*
X83070Y-56988D01*
G54D16*
X85539Y-59448D02*
X85539Y-59145D01*
X87204Y-57480D02*
X87204Y-55511D01*
X85539Y-59145D02*
X87204Y-57480D01*
G54D17*
X86614Y-57381D02*
X86614Y-56791D01*
X85433Y-58445D02*
X85550Y-58445D01*
X85550Y-58445D02*
X86614Y-57381D01*
X85433Y-58445D02*
X85433Y-58555D01*
X85433Y-58555D02*
X84539Y-59448D01*
X84645Y-58445D02*
X84542Y-58445D01*
X84542Y-58445D02*
X83539Y-59448D01*
X83464Y-57381D02*
X83464Y-56889D01*
X84528Y-58445D02*
X83464Y-57381D01*
X84528Y-58445D02*
X84645Y-58445D01*
M02*
